<?xml version="1.0" standalone="no"?>
<!DOCTYPE svg PUBLIC "-//W3C//DTD SVG 20010904//EN"
 "http://www.w3.org/TR/2001/REC-SVG-20010904/DTD/svg10.dtd">
<svg version="1.0" xmlns="http://www.w3.org/2000/svg"
 width="500.000000pt" height="500.000000pt" viewBox="0 0 500.000000 500.000000"
 preserveAspectRatio="xMidYMid meet">

<g transform="translate(0.000000,500.000000) scale(0.100000,-0.100000)"
fill="#000000" stroke="none">
<path d="M2125 4904 c-466 -50 -760 -140 -888 -271 -43 -45 -48 -61 -82 -238
-30 -162 -51 -327 -65 -517 -11 -157 -14 -438 -4 -438 3 0 53 16 112 35 223
72 519 133 799 165 223 25 609 27 876 5 310 -27 633 -86 899 -164 101 -30 128
-35 132 -24 7 17 -10 372 -24 525 -14 145 -46 367 -70 487 -16 79 -24 100 -52
129 -133 139 -318 217 -658 276 -259 46 -702 59 -975 30z m745 -29 c69 -8 161
-22 205 -31 101 -20 302 -79 358 -105 23 -11 33 -17 22 -13 -104 31 -254 59
-475 89 -173 23 -621 24 -765 1 -189 -30 -414 -91 -466 -127 -14 -10 -31 -36
-38 -59 -17 -57 -132 -302 -208 -442 -7 -13 -13 -31 -13 -40 0 -10 -4 -18 -9
-18 -8 0 -23 -34 -92 -215 l-38 -100 -1 139 c0 163 15 381 36 515 9 57 11 98
5 104 -24 24 -118 -62 -150 -137 -41 -95 -67 -272 -81 -556 -14 -265 -21 -333
-30 -298 -9 31 4 383 20 538 18 179 56 372 86 445 25 61 114 117 289 182 214
80 367 114 585 132 74 7 153 13 175 15 84 8 465 -4 585 -19z m675 -175 c8 -13
-5 -13 -25 0 -13 8 -13 10 2 10 9 0 20 -4 23 -10z m73 -35 c58 -30 72 -42 100
-82 33 -47 27 -48 -15 -2 -21 23 -61 55 -90 71 -49 27 -62 38 -48 38 3 0 27
-11 53 -25z m181 -370 c26 -139 51 -420 51 -560 0 -60 -2 -106 -5 -104 -2 3
-9 95 -15 204 -12 228 -32 406 -60 549 -11 54 -20 103 -19 110 2 21 29 -89 48
-199z"/>
<path d="M2265 3219 c-206 -7 -319 -19 -490 -50 -93 -17 -243 -55 -253 -64 -1
-1 16 -78 38 -171 23 -93 57 -236 77 -319 75 -316 113 -458 128 -481 25 -38
196 -183 245 -207 44 -22 51 -22 465 -22 415 0 420 0 466 23 63 31 230 179
252 225 14 28 184 708 231 923 l7 31 -73 21 c-170 48 -392 80 -613 87 -82 3
-181 7 -220 8 -38 2 -155 0 -260 -4z m444 -191 c-85 -141 -185 -341 -240 -475
-18 -46 -35 -83 -38 -83 -4 0 -22 30 -41 68 -19 37 -60 114 -92 171 -32 57
-58 105 -58 107 0 1 36 -22 79 -52 44 -29 81 -54 84 -54 3 0 22 24 43 53 120
166 317 397 339 397 2 0 -32 -59 -76 -132z m-105 -453 l19 -36 37 36 c40 39
54 44 47 18 -3 -10 -8 -35 -12 -55 -3 -21 -10 -38 -15 -38 -5 0 -6 17 -3 38
l6 37 -32 -29 c-30 -29 -31 -29 -46 -10 -8 10 -15 24 -15 29 -1 20 -20 -20
-20 -42 0 -13 -5 -23 -10 -23 -7 0 -9 14 -5 38 15 84 21 89 49 37z m199 28
c-34 -3 -43 -8 -43 -23 0 -14 9 -20 38 -23 l37 -4 -42 -1 c-31 -2 -43 -6 -43
-17 0 -10 11 -15 35 -15 19 0 35 -4 35 -10 0 -5 -21 -10 -46 -10 l-46 0 6 31
c3 17 6 42 6 55 0 22 3 24 53 22 50 -1 50 -2 10 -5z m116 -28 c30 -44 41 -44
41 0 0 19 5 35 11 35 11 0 4 -98 -8 -110 -2 -3 -20 12 -37 34 -27 32 -34 35
-39 21 -4 -9 -7 -25 -7 -36 0 -10 -5 -19 -11 -19 -8 0 -10 13 -5 38 3 20 6 45
6 55 0 28 23 20 49 -18z m-843 -118 c33 -38 32 -90 -1 -123 -14 -14 -25 -27
-25 -29 0 -3 14 -27 30 -53 37 -60 37 -64 4 -60 -20 2 -36 19 -69 73 -40 66
-41 70 -21 73 79 13 70 112 -11 112 l-33 0 0 -125 0 -125 -25 0 -25 0 0 146 0
146 76 -4 c69 -3 79 -6 100 -31z m1074 -1 c31 -38 -9 -89 -54 -68 -45 20 -30
82 20 82 12 0 27 -7 34 -14z m-883 -58 c17 -16 23 -32 23 -65 l0 -43 -65 0
c-36 0 -65 -3 -65 -8 0 -4 7 -18 16 -31 15 -20 23 -23 65 -19 36 4 49 2 49 -8
0 -42 -120 -44 -151 -3 -35 47 -28 149 12 182 30 24 87 22 116 -5z m101 -14
l19 -36 21 36 c16 27 28 36 47 36 l26 0 -31 -56 -32 -55 32 -60 31 -59 -24 0
c-18 0 -31 10 -47 37 l-22 38 -19 -38 c-15 -28 -26 -37 -44 -37 -32 0 -31 3 5
62 17 26 30 51 30 55 0 3 -13 28 -30 55 -16 26 -30 50 -30 53 0 3 11 5 25 5
18 0 29 -9 43 -36z m257 11 c22 -21 25 -33 25 -90 0 -57 -3 -69 -25 -90 -34
-35 -78 -33 -116 4 -24 25 -29 37 -29 81 0 52 19 104 42 113 34 14 80 6 103
-18z m205 5 c17 -17 20 -33 20 -115 0 -88 -1 -95 -20 -95 -18 0 -20 7 -20 76
0 91 -10 114 -50 114 l-29 0 -3 -92 c-3 -88 -4 -93 -25 -96 -23 -3 -23 -2 -23
102 0 120 3 125 83 126 34 0 52 -5 67 -20z m173 9 c36 -16 47 -50 47 -141 l0
-80 -66 4 c-58 4 -70 8 -91 32 -44 52 -6 116 68 116 21 0 39 4 39 9 0 19 -34
35 -71 34 -37 -2 -51 12 -32 30 10 11 80 8 106 -4z m-978 -279 c8 0 15 -2 15
-4 0 -2 3 -13 6 -23 6 -16 5 -16 -9 2 -16 20 -16 20 -17 -2 0 -12 11 -35 25
-51 14 -17 25 -36 25 -43 0 -8 -5 -6 -12 6 -26 45 -74 62 -63 23 7 -23 7 -23
-9 -3 -20 25 -20 45 -1 45 9 0 12 6 9 15 -4 8 -11 12 -16 9 -10 -7 -28 13 -28
31 0 6 4 3 10 -5 9 -14 24 -8 26 11 3 22 5 23 15 7 5 -10 17 -18 24 -18z m82
-21 c6 -20 6 -20 29 2 34 32 46 20 23 -26 -10 -22 -17 -30 -15 -17 4 22 -8 30
-19 12 -10 -16 -25 -12 -25 8 -1 12 -5 8 -16 -11 -21 -38 -26 -30 -12 16 13
41 27 48 35 16z m151 -6 c4 -26 -37 -57 -62 -47 -19 7 -22 50 -3 57 10 4 13
-2 9 -20 -4 -20 -1 -24 14 -21 23 4 31 37 12 50 -10 7 -8 8 7 6 12 -2 21 -12
23 -25z m58 11 c-9 -8 -19 -26 -22 -40 -3 -13 -10 -24 -15 -24 -11 0 -11 3 1
36 8 21 8 29 -2 36 -8 5 -1 8 20 8 30 0 32 -1 18 -16z m42 -16 c-13 -40 -28
-59 -28 -35 0 21 21 67 31 67 4 0 3 -15 -3 -32z m90 6 c4 -25 -32 -59 -53 -50
-28 10 -30 38 -5 58 28 23 54 20 58 -8z m59 4 l10 -23 7 23 c4 12 11 22 16 22
10 0 -7 -59 -21 -74 -5 -5 -13 3 -19 20 l-12 29 -13 -30 c-16 -35 -20 -10 -5
29 12 32 24 33 37 4z m86 15 c-28 -5 -30 -19 -3 -26 11 -3 20 -12 20 -20 0
-19 -30 -31 -44 -17 -8 8 -6 9 5 5 25 -9 33 12 9 25 -30 16 -26 40 8 39 23 -2
24 -2 5 -6z m97 3 c0 -2 3 -11 6 -20 5 -13 -1 -16 -26 -16 -28 0 -31 -2 -20
-15 7 -9 20 -13 29 -10 13 5 14 4 3 -7 -25 -25 -63 20 -48 58 5 12 56 21 56
10z m94 -18 c8 -33 7 -48 -4 -48 -5 0 -10 14 -10 31 0 44 -33 36 -41 -11 l-6
-35 -2 43 c-1 40 0 42 28 42 21 0 30 -6 35 -22z m59 15 c-28 -5 -30 -19 -3
-26 11 -3 20 -12 20 -20 0 -20 -28 -30 -48 -16 -14 9 -15 10 -1 6 9 -3 22 -1
30 3 10 7 7 11 -14 19 -42 16 -34 42 12 40 24 -2 24 -2 4 -6z m97 -13 c10 -18
8 -20 -20 -20 -21 0 -30 -4 -27 -12 2 -7 15 -12 28 -11 20 2 21 1 7 -7 -21
-13 -46 -3 -53 21 -14 42 44 68 65 29z m60 10 c0 -5 -4 -10 -10 -10 -5 0 -10
5 -10 10 0 6 5 10 10 10 6 0 10 -4 10 -10z"/>
<path d="M3085 2446 c-10 -22 5 -50 29 -54 11 -3 14 1 10 13 -5 13 -9 14 -15
4 -5 -8 -9 0 -11 22 -3 28 -5 31 -13 15z"/>
<path d="M3134 2434 c-1 -13 2 -24 7 -24 11 0 12 37 2 43 -5 3 -9 -6 -9 -19z"/>
<path d="M2170 2361 c-15 -30 -14 -31 35 -31 25 0 45 3 45 6 0 20 -24 44 -45
44 -14 0 -29 -8 -35 -19z"/>
<path d="M2547 2378 c-13 -7 -17 -23 -17 -63 0 -69 7 -85 36 -85 28 0 44 26
44 75 0 61 -28 93 -63 73z"/>
<path d="M2935 2290 c-25 -28 -10 -54 34 -58 32 -3 32 -3 29 35 -4 46 -33 56
-63 23z"/>
<path d="M2403 2113 c-7 -2 -13 -14 -13 -25 0 -28 34 -19 38 10 3 22 -2 25
-25 15z"/>
<path d="M2645 2110 c-4 -6 5 -10 20 -10 15 0 24 4 20 10 -3 6 -12 10 -20 10
-8 0 -17 -4 -20 -10z"/>
<path d="M2890 2110 c0 -5 9 -10 20 -10 11 0 20 5 20 10 0 6 -9 10 -20 10 -11
0 -20 -4 -20 -10z"/>
<path d="M1432 3045 c-1 -11 3 -38 7 -60 7 -34 9 -35 9 -10 0 35 -15 101 -16
70z"/>
<path d="M3510 3053 c0 -22 -136 -958 -146 -1008 -14 -68 -36 -95 -303 -387
-19 -21 -45 -53 -57 -72 -24 -36 -55 -134 -53 -171 1 -11 7 8 15 42 23 105 32
118 204 303 147 157 176 193 194 242 9 24 31 151 50 283 67 464 107 767 101
773 -3 3 -5 1 -5 -5z"/>
<path d="M1461 2994 c0 -11 3 -14 6 -6 3 7 2 16 -1 19 -3 4 -6 -2 -5 -13z"/>
<path d="M1424 2890 c0 -52 1 -74 3 -47 2 26 2 68 0 95 -2 26 -3 4 -3 -48z"/>
<path d="M3524 2880 c0 -52 1 -74 3 -47 2 26 2 68 0 95 -2 26 -3 4 -3 -48z"/>
<path d="M1471 2944 c0 -11 3 -14 6 -6 3 7 2 16 -1 19 -3 4 -6 -2 -5 -13z"/>
<path d="M3471 2944 c0 -11 3 -14 6 -6 3 7 2 16 -1 19 -3 4 -6 -2 -5 -13z"/>
<path d="M1451 2923 c-1 -23 9 -95 80 -603 31 -223 45 -296 64 -335 15 -32 83
-113 181 -220 150 -163 202 -237 205 -290 0 -11 3 -14 6 -8 7 19 -16 83 -47
128 -16 22 -92 110 -170 195 -78 85 -151 172 -161 192 -13 25 -32 121 -54 275
-83 560 -103 687 -104 666z"/>
<path d="M1491 2844 c0 -11 3 -14 6 -6 3 7 2 16 -1 19 -3 4 -6 -2 -5 -13z"/>
<path d="M1501 2794 c0 -11 3 -14 6 -6 3 7 2 16 -1 19 -3 4 -6 -2 -5 -13z"/>
<path d="M3441 2794 c0 -11 3 -14 6 -6 3 7 2 16 -1 19 -3 4 -6 -2 -5 -13z"/>
<path d="M1456 2620 c14 -416 26 -651 35 -697 13 -65 39 -101 174 -238 251
-254 270 -279 316 -422 12 -40 24 -71 26 -69 6 6 -58 279 -72 305 -20 40 -66
94 -213 254 -74 81 -144 162 -155 179 -14 23 -26 91 -47 262 -16 127 -38 303
-49 391 l-20 160 5 -125z"/>
<path d="M3481 2612 c-7 -64 -18 -166 -26 -227 -7 -60 -21 -171 -30 -245 -26
-216 -3 -175 -263 -461 -63 -68 -124 -142 -137 -164 -21 -35 -91 -312 -82
-321 2 -2 14 29 26 69 41 128 62 157 261 364 115 119 199 215 212 241 16 34
23 74 29 176 11 184 30 678 26 682 -2 2 -9 -49 -16 -114z"/>
<path d="M1521 2694 c0 -11 3 -14 6 -6 3 7 2 16 -1 19 -3 4 -6 -2 -5 -13z"/>
<path d="M3421 2694 c0 -11 3 -14 6 -6 3 7 2 16 -1 19 -3 4 -6 -2 -5 -13z"/>
<path d="M1532 2650 c0 -14 2 -19 5 -12 2 6 2 18 0 25 -3 6 -5 1 -5 -13z"/>
<path d="M3411 2644 c0 -11 3 -14 6 -6 3 7 2 16 -1 19 -3 4 -6 -2 -5 -13z"/>
<path d="M1434 2540 c0 -63 1 -89 3 -57 2 31 2 83 0 115 -2 31 -3 5 -3 -58z"/>
<path d="M3514 2515 c0 -60 1 -84 3 -52 2 32 2 81 0 110 -2 29 -3 3 -3 -58z"/>
<path d="M1551 2544 c0 -11 3 -14 6 -6 3 7 2 16 -1 19 -3 4 -6 -2 -5 -13z"/>
<path d="M3391 2544 c0 -11 3 -14 6 -6 3 7 2 16 -1 19 -3 4 -6 -2 -5 -13z"/>
<path d="M1561 2504 c0 -11 3 -14 6 -6 3 7 2 16 -1 19 -3 4 -6 -2 -5 -13z"/>
<path d="M1581 2394 c0 -11 3 -14 6 -6 3 7 2 16 -1 19 -3 4 -6 -2 -5 -13z"/>
<path d="M3361 2394 c0 -11 3 -14 6 -6 3 7 2 16 -1 19 -3 4 -6 -2 -5 -13z"/>
<path d="M1591 2354 c0 -11 3 -14 6 -6 3 7 2 16 -1 19 -3 4 -6 -2 -5 -13z"/>
<path d="M3351 2354 c0 -11 3 -14 6 -6 3 7 2 16 -1 19 -3 4 -6 -2 -5 -13z"/>
<path d="M1444 2250 c0 -58 1 -81 3 -52 2 28 2 76 0 105 -2 28 -3 5 -3 -53z"/>
<path d="M3504 2230 c0 -58 1 -81 3 -52 2 28 2 76 0 105 -2 28 -3 5 -3 -53z"/>
<path d="M1601 2304 c0 -11 3 -14 6 -6 3 7 2 16 -1 19 -3 4 -6 -2 -5 -13z"/>
<path d="M1611 2254 c0 -11 3 -14 6 -6 3 7 2 16 -1 19 -3 4 -6 -2 -5 -13z"/>
<path d="M3326 2234 c-4 -20 -5 -38 -3 -40 3 -3 8 11 11 32 4 20 5 38 3 40 -3
3 -8 -11 -11 -32z"/>
<path d="M1621 2214 c0 -11 3 -14 6 -6 3 7 2 16 -1 19 -3 4 -6 -2 -5 -13z"/>
<path d="M1631 2164 c0 -11 3 -14 6 -6 3 7 2 16 -1 19 -3 4 -6 -2 -5 -13z"/>
<path d="M1641 2114 c0 -11 3 -14 6 -6 3 7 2 16 -1 19 -3 4 -6 -2 -5 -13z"/>
<path d="M3301 2114 c0 -11 3 -14 6 -6 3 7 2 16 -1 19 -3 4 -6 -2 -5 -13z"/>
<path d="M1656 2065 c3 -16 12 -43 20 -60 23 -48 392 -419 449 -451 l50 -29
300 0 300 0 50 29 c30 17 121 101 228 210 194 197 221 228 232 266 5 16 -3 10
-23 -20 -16 -25 -112 -127 -214 -227 -251 -247 -214 -233 -573 -233 -362 0
-322 -17 -591 253 -160 161 -205 211 -218 247 -9 26 -14 33 -10 15z"/>
<path d="M3291 2074 c0 -11 3 -14 6 -6 3 7 2 16 -1 19 -3 4 -6 -2 -5 -13z"/>
<path d="M1453 1980 c0 -25 2 -35 4 -22 2 12 2 32 0 45 -2 12 -4 2 -4 -23z"/>
<path d="M3493 1955 c0 -22 2 -30 4 -17 2 12 2 30 0 40 -3 9 -5 -1 -4 -23z"/>
<path d="M1461 1884 c0 -11 3 -14 6 -6 3 7 2 16 -1 19 -3 4 -6 -2 -5 -13z"/>
<path d="M3456 1813 c-6 -14 -5 -15 5 -6 7 7 10 15 7 18 -3 3 -9 -2 -12 -12z"/>
<path d="M1518 1765 c11 -16 105 -113 209 -215 l188 -185 -205 210 c-113 116
-207 212 -209 215 -3 3 5 -8 17 -25z"/>
<path d="M2340 1785 c0 -15 52 -105 60 -105 8 0 60 90 60 105 0 3 -4 5 -10 5
-5 0 -19 -19 -31 -41 l-21 -42 -18 42 c-11 22 -24 41 -30 41 -5 0 -10 -2 -10
-5z"/>
<path d="M2500 1775 c-7 -8 -10 -21 -7 -29 3 -7 1 -18 -5 -24 -23 -23 0 -42
51 -42 50 0 71 17 54 43 -4 7 -6 20 -4 31 1 10 -3 23 -11 27 -21 14 -64 10
-78 -6z m60 -20 c0 -8 -9 -15 -20 -15 -11 0 -20 7 -20 15 0 8 9 15 20 15 11 0
20 -7 20 -15z m10 -45 c0 -5 -13 -10 -30 -10 -16 0 -30 5 -30 10 0 6 14 10 30
10 17 0 30 -4 30 -10z"/>
<path d="M2135 1750 c3 -5 44 -10 91 -10 54 0 83 4 79 10 -3 6 -44 10 -91 10
-54 0 -83 -4 -79 -10z"/>
<path d="M2645 1750 c-4 -6 25 -10 79 -10 47 0 88 5 91 10 4 6 -25 10 -79 10
-47 0 -88 -4 -91 -10z"/>
<path d="M3230 1565 c-107 -107 -193 -195 -190 -195 3 0 93 88 200 195 107
107 193 195 190 195 -3 0 -93 -88 -200 -195z"/>
<path d="M2175 1710 c3 -5 40 -10 81 -10 43 0 74 4 74 10 0 6 -34 10 -81 10
-51 0 -78 -4 -74 -10z"/>
<path d="M2620 1710 c0 -6 31 -10 74 -10 41 0 78 5 81 10 4 6 -23 10 -74 10
-47 0 -81 -4 -81 -10z"/>
<path d="M1767 1420 c55 -58 111 -123 122 -145 13 -24 19 -30 15 -15 -11 43
-40 83 -106 145 -120 113 -133 119 -31 15z"/>
<path d="M3183 1435 c-92 -85 -125 -128 -137 -175 -4 -15 2 -9 15 15 11 22 67
86 122 143 56 56 99 102 96 102 -3 0 -46 -38 -96 -85z"/>
<path d="M2467 1457 c-14 -10 -16 -29 -14 -102 l2 -90 30 0 30 0 2 92 c2 81 0
94 -16 102 -13 7 -23 6 -34 -2z m39 -32 c4 -15 1 -32 -7 -41 -19 -23 -44 5
-35 40 8 33 34 34 42 1z m4 -110 c0 -30 -22 -49 -38 -33 -27 27 -3 90 25 67 7
-7 13 -22 13 -34z"/>
<path d="M2370 1394 c-17 -36 -30 -70 -30 -75 0 -5 14 -9 30 -9 26 0 30 -4 30
-27 0 -30 17 -20 20 12 6 56 -1 165 -10 165 -6 0 -24 -30 -40 -66z m30 -29 c0
-39 -3 -45 -21 -45 -16 0 -19 4 -14 18 4 9 12 29 17 45 14 38 18 34 18 -18z"/>
<path d="M1992 1425 c0 -16 2 -22 5 -12 2 9 2 23 0 30 -3 6 -5 -1 -5 -18z"/>
<path d="M1756 1359 c43 -47 81 -84 84 -82 2 2 -34 41 -80 86 l-84 82 80 -86z"/>
<path d="M3260 1429 c0 -5 5 -7 10 -4 6 3 10 8 10 11 0 2 -4 4 -10 4 -5 0 -10
-5 -10 -11z"/>
<path d="M2558 1424 c-11 -11 -10 -152 1 -159 6 -3 11 17 13 47 4 69 22 68 28
-2 7 -66 23 -46 18 21 -2 36 -7 45 -25 47 -15 2 -23 11 -25 29 -2 14 -6 21
-10 17z"/>
<path d="M3175 1350 c-38 -38 -67 -71 -64 -73 2 -2 35 29 73 70 38 40 67 73
65 73 -3 0 -36 -31 -74 -70z"/>
<path d="M2002 1375 c0 -11 4 -33 8 -50 7 -27 8 -27 8 -5 0 14 -4 36 -8 50 -6
20 -8 21 -8 5z"/>
<path d="M2942 1370 c0 -14 2 -19 5 -12 2 6 2 18 0 25 -3 6 -5 1 -5 -13z"/>
<path d="M3228 1327 c-38 -35 -68 -67 -68 -71 0 -4 32 23 70 60 64 62 75 74
68 74 -2 0 -33 -29 -70 -63z"/>
<path d="M1660 1378 c0 -2 29 -32 65 -66 36 -35 62 -57 59 -48 -5 13 -124 122
-124 114z"/>
<path d="M2932 1320 c0 -14 2 -19 5 -12 2 6 2 18 0 25 -3 6 -5 1 -5 -13z"/>
<path d="M3347 1323 c-4 -3 -7 -20 -7 -36 0 -22 4 -28 15 -23 11 4 15 -1 15
-19 0 -18 -4 -23 -15 -19 -11 5 -13 2 -9 -10 4 -9 12 -15 18 -13 14 5 21 77 7
77 -6 0 -11 7 -11 15 0 8 5 15 10 15 6 0 10 5 10 10 0 11 -23 14 -33 3z"/>
<path d="M3394 1317 c-3 -8 -4 -36 -2 -63 2 -36 7 -49 18 -49 20 0 22 116 3
122 -7 3 -16 -2 -19 -10z m26 -53 c0 -27 -4 -43 -10 -39 -17 11 -11 85 7 85 2
0 3 -21 3 -46z"/>
<path d="M1685 1280 c10 -11 20 -20 23 -20 3 0 -3 9 -13 20 -10 11 -20 20 -23
20 -3 0 3 -9 13 -20z"/>
<path d="M3254 1278 l-19 -23 23 19 c12 11 22 21 22 23 0 8 -8 2 -26 -19z"/>
<path d="M2022 1270 c0 -14 2 -19 5 -12 2 6 2 18 0 25 -3 6 -5 1 -5 -13z"/>
<path d="M2922 1270 c0 -14 2 -19 5 -12 2 6 2 18 0 25 -3 6 -5 1 -5 -13z"/>
<path d="M3467 1283 c-11 -10 -8 -73 3 -73 6 0 10 -5 10 -11 0 -5 -5 -7 -11
-3 -7 4 -10 2 -8 -5 10 -30 24 -7 27 44 3 50 -4 66 -21 48z m10 -50 c-3 -10
-5 -4 -5 12 0 17 2 24 5 18 2 -7 2 -21 0 -30z"/>
<path d="M1850 1235 c0 -5 5 -17 10 -25 5 -8 10 -10 10 -5 0 6 -5 17 -10 25
-5 8 -10 11 -10 5z"/>
<path d="M1910 1225 c0 -5 5 -17 10 -25 5 -8 10 -10 10 -5 0 6 -5 17 -10 25
-5 8 -10 11 -10 5z"/>
<path d="M2031 1214 c0 -11 3 -14 6 -6 3 7 2 16 -1 19 -3 4 -6 -2 -5 -13z"/>
<path d="M2176 1211 c-6 -16 -4 -26 5 -32 21 -13 29 -11 30 9 0 14 2 14 9 -3
8 -20 9 -19 9 1 1 12 -6 27 -14 34 -13 10 -15 9 -16 -11 l-1 -24 -7 25 -7 25
-8 -24z"/>
<path d="M2292 1205 c0 -16 2 -22 5 -12 2 9 2 23 0 30 -3 6 -5 -1 -5 -18z"/>
<path d="M2310 1198 l1 -33 13 25 c14 25 13 40 -5 40 -5 0 -9 -15 -9 -32z"/>
<path d="M2350 1212 c0 -10 -5 -23 -11 -29 -7 -7 -3 -10 14 -10 23 0 24 2 15
28 -11 33 -18 37 -18 11z"/>
<path d="M2380 1213 c0 -12 5 -25 10 -28 13 -8 13 15 0 35 -8 12 -10 11 -10
-7z"/>
<path d="M2406 1215 c4 -8 10 -15 15 -15 4 0 6 7 3 15 -4 8 -10 15 -15 15 -4
0 -6 -7 -3 -15z"/>
<path d="M2434 1221 c8 -13 -4 -42 -15 -35 -5 3 -9 0 -9 -5 0 -15 37 -14 43 2
5 17 -4 47 -15 47 -5 0 -7 -4 -4 -9z"/>
<path d="M2460 1215 c0 -8 5 -15 10 -15 6 0 10 7 10 15 0 8 -4 15 -10 15 -5 0
-10 -7 -10 -15z"/>
<path d="M2491 1201 c-1 -33 0 -34 14 -15 8 10 14 26 15 34 0 12 -2 13 -9 1
-7 -11 -9 -11 -14 0 -3 8 -6 -1 -6 -20z"/>
<path d="M2533 1213 c3 -12 0 -21 -5 -20 -6 1 -12 -3 -15 -10 -2 -7 4 -11 16
-10 23 1 27 23 10 47 -9 12 -10 11 -6 -7z"/>
<path d="M2561 1209 c-1 -15 6 -29 14 -33 11 -4 15 2 15 27 0 22 -3 28 -9 18
-7 -11 -9 -11 -14 0 -3 8 -6 2 -6 -12z"/>
<path d="M2602 1200 c0 -19 2 -27 5 -17 2 9 2 25 0 35 -3 9 -5 1 -5 -18z"/>
<path d="M2620 1202 c0 -18 4 -32 9 -32 4 0 7 12 5 26 -4 38 -14 42 -14 6z"/>
<path d="M2660 1218 c0 -9 6 -19 13 -21 9 -4 8 -8 -3 -16 -9 -7 -10 -11 -3
-11 21 0 25 19 9 42 -12 17 -16 19 -16 6z"/>
<path d="M2702 1200 c0 -19 2 -27 5 -17 2 9 2 25 0 35 -3 9 -5 1 -5 -18z"/>
<path d="M2722 1200 c0 -19 2 -27 5 -17 2 9 2 25 0 35 -3 9 -5 1 -5 -18z"/>
<path d="M2773 1214 c-3 -8 -1 -20 4 -25 7 -7 11 -2 11 15 0 29 -6 33 -15 10z"/>
<path d="M3026 1215 c-9 -26 -7 -32 5 -12 6 10 9 21 6 23 -2 3 -7 -2 -11 -11z"/>
<path d="M2911 1204 c0 -11 3 -14 6 -6 3 7 2 16 -1 19 -3 4 -6 -2 -5 -13z"/>
<path d="M1288 983 c7 -3 16 -2 19 1 4 3 -2 6 -13 5 -11 0 -14 -3 -6 -6z"/>
<path d="M3678 983 c6 -2 18 -2 25 0 6 3 1 5 -13 5 -14 0 -19 -2 -12 -5z"/>
<path d="M1363 973 c9 -2 23 -2 30 0 6 3 -1 5 -18 5 -16 0 -22 -2 -12 -5z"/>
<path d="M3515 973 c-16 -2 -104 -10 -195 -18 l-165 -14 130 5 c144 6 403 31
315 31 -30 0 -68 -2 -85 -4z"/>
<path d="M3028 933 c23 -2 61 -2 85 0 23 2 4 4 -43 4 -47 0 -66 -2 -42 -4z"/>
<path d="M2668 923 c50 -2 134 -2 185 0 50 1 9 3 -93 3 -102 0 -143 -2 -92 -3z"/>
</g>
</svg>
